<?xml version="1.0" standalone="no"?>
<!DOCTYPE svg PUBLIC "-//W3C//DTD SVG 20010904//EN"
 "http://www.w3.org/TR/2001/REC-SVG-20010904/DTD/svg10.dtd">
<svg version="1.0" xmlns="http://www.w3.org/2000/svg"
 width="1024.000000pt" height="1536.000000pt" viewBox="0 0 1024.000000 1536.000000"
 preserveAspectRatio="xMidYMid meet">

<g transform="translate(0.000000,1536.000000) scale(0.100000,-0.100000)"
fill="#000000" stroke="none">
<path d="M3640 13250 c-243 -19 -421 -77 -585 -191 -182 -125 -289 -292 -331
-515 -23 -122 -15 -348 15 -452 55 -189 175 -340 367 -460 69 -43 306 -155
499 -236 355 -149 447 -199 529 -286 74 -79 91 -125 91 -250 0 -99 -2 -110
-33 -172 -72 -147 -229 -220 -472 -219 -413 2 -707 198 -800 533 -11 40 -20
85 -20 100 l0 28 -120 0 -120 0 0 -337 0 -338 78 -52 c196 -133 450 -218 756
-254 126 -15 420 -6 541 16 318 58 578 220 712 445 74 123 120 328 107 480
-17 213 -94 379 -241 521 -112 109 -238 180 -559 318 -498 212 -609 274 -683
377 -49 69 -65 134 -59 247 10 194 130 318 349 363 63 13 110 15 189 11 131
-8 202 -26 310 -79 114 -55 222 -162 273 -269 35 -74 70 -181 82 -251 l6 -38
104 0 105 0 0 358 0 357 -43 26 c-194 122 -445 197 -723 218 -151 12 -181 12
-324 1z"/>
<path d="M5220 13070 l0 -140 64 0 c113 0 175 -37 195 -115 8 -31 11 -371 11
-1112 0 -1028 -1 -1070 -19 -1110 -26 -56 -65 -75 -168 -81 l-83 -5 0 -143 0
-144 1115 0 1115 0 0 455 0 456 -102 -3 -102 -3 -12 -65 c-45 -240 -200 -425
-418 -497 -80 -27 -85 -27 -402 -31 l-321 -4 -6 90 c-9 120 -9 2007 -1 2117 8
93 24 130 77 169 23 17 46 22 118 24 l89 4 0 139 0 139 -575 0 -575 0 0 -140z"/>
<path d="M7830 10115 c-114 -32 -206 -109 -259 -216 -38 -78 -55 -166 -47
-239 8 -68 42 -174 62 -190 8 -7 14 -18 14 -24 0 -13 -566 -578 -1306 -1304
-275 -270 -507 -498 -514 -507 -7 -8 -17 -15 -22 -15 -5 0 -95 78 -201 173
-106 95 -320 288 -478 428 -157 140 -365 326 -463 414 -273 245 -284 254 -321
261 -78 14 -69 21 -463 -386 -152 -157 -361 -373 -466 -480 -104 -107 -239
-247 -301 -310 -61 -63 -265 -276 -453 -473 -354 -370 -348 -362 -342 -437 5
-55 49 -90 116 -90 46 0 -3 -48 764 755 52 55 147 154 211 220 716 744 901
935 907 935 9 0 334 -285 696 -610 209 -188 674 -600 714 -633 39 -32 95 -36
145 -11 18 9 464 448 993 975 l960 960 44 -16 c242 -85 508 75 552 333 32 189
-70 386 -240 464 -56 26 -82 32 -157 35 -59 2 -109 -2 -145 -12z"/>
<path d="M7420 8312 c-7 -3 -10 -486 -10 -1503 l0 -1499 300 0 300 0 0 1500 0
1500 -207 2 c-115 1 -245 2 -290 2 -45 1 -87 0 -93 -2z"/>
<path d="M4283 7443 l-203 -3 0 -1065 0 -1065 300 0 300 0 -2 1068 -3 1067
-95 0 c-52 1 -186 -1 -297 -2z"/>
<path d="M6390 6370 l0 -1060 300 0 300 0 0 1060 0 1060 -300 0 -300 0 0
-1060z"/>
<path d="M5188 6100 l2 -790 335 0 335 0 0 790 0 790 -337 0 -338 0 3 -790z"/>
<path d="M3030 5920 l0 -610 295 0 295 0 0 610 0 610 -295 0 -295 0 0 -610z"/>
<path d="M4655 4886 c-91 -27 -111 -36 -113 -54 -3 -16 7 -26 40 -43 24 -12
46 -27 50 -33 4 -6 8 -203 8 -437 l0 -426 -22 -20 c-13 -11 -33 -24 -45 -28
-16 -4 -23 -14 -23 -31 l0 -24 191 0 190 0 -3 27 c-2 22 -10 29 -37 34 -69 14
-66 -16 -69 554 l-3 515 -27 -1 c-15 0 -76 -15 -137 -33z"/>
<path d="M6544 4856 c-46 -46 -48 -104 -5 -146 72 -72 177 -37 188 63 5 43 3
49 -30 82 -29 29 -42 35 -77 35 -34 0 -48 -6 -76 -34z"/>
<path d="M2150 4832 l-65 -3 -82 -232 c-44 -128 -114 -324 -153 -437 -40 -113
-81 -222 -91 -242 -20 -39 -62 -68 -99 -68 -16 0 -20 -6 -20 -30 l0 -30 170 0
170 0 0 30 c0 26 -4 30 -28 30 -15 0 -38 7 -50 16 -31 22 -28 70 11 184 l33
95 180 0 179 0 34 -85 c56 -142 52 -191 -17 -206 -48 -10 -52 -13 -52 -39 l0
-25 210 0 210 0 0 24 c0 18 -10 29 -37 43 -20 10 -45 29 -55 43 -10 14 -79
189 -154 390 -75 201 -150 402 -167 448 -17 46 -38 86 -46 90 -9 4 -45 6 -81
4z m50 -384 c38 -108 70 -201 70 -207 0 -7 -49 -11 -145 -11 -80 0 -145 4
-145 8 0 4 32 97 70 207 39 110 70 201 70 204 0 17 18 -29 80 -201z"/>
<path d="M8182 4817 c-40 -12 -117 -79 -137 -117 -44 -86 -38 -190 17 -290 21
-38 27 -55 18 -58 -34 -12 -139 -93 -167 -131 -69 -90 -80 -214 -27 -311 96
-176 379 -198 546 -42 l27 25 61 -56 c69 -64 87 -71 168 -65 63 4 169 48 178
73 10 24 -4 51 -18 37 -17 -17 -62 -15 -106 3 -33 14 -152 120 -152 136 0 3
21 37 46 75 25 38 62 100 81 139 44 87 67 113 110 121 26 5 33 11 33 30 l0 24
-165 0 -165 0 0 -25 c0 -14 4 -25 9 -25 4 0 20 -11 35 -25 36 -33 35 -90 -3
-171 -16 -34 -33 -64 -38 -67 -8 -5 -45 38 -170 200 l-63 81 49 36 c108 79
157 164 148 253 -11 105 -88 164 -213 162 -38 -1 -84 -6 -102 -12z m149 -95
c62 -55 48 -170 -31 -247 -37 -36 -41 -38 -58 -22 -54 49 -89 191 -61 244 30
56 102 68 150 25z m-161 -464 c13 -18 72 -95 132 -170 60 -76 107 -142 103
-148 -3 -6 -25 -20 -48 -32 -32 -17 -59 -22 -119 -23 -69 0 -80 3 -120 30
-108 75 -120 245 -26 343 18 17 37 32 43 32 6 0 22 -15 35 -32z"/>
<path d="M3005 4543 c-206 -60 -215 -63 -215 -87 0 -17 7 -25 28 -29 65 -15
71 -41 71 -302 0 -223 -7 -255 -59 -271 -27 -9 -35 -17 -37 -38 l-2 -26 190 0
190 0 -3 27 c-2 21 -10 29 -35 35 -60 15 -63 29 -63 264 l0 212 25 30 c32 38
101 72 144 72 51 0 97 -27 118 -68 15 -32 18 -68 21 -244 4 -228 1 -241 -54
-264 -26 -11 -34 -20 -34 -39 l0 -25 180 0 180 0 0 30 c0 23 -5 30 -19 30 -71
0 -75 17 -81 312 l-5 256 -30 44 c-46 65 -104 93 -190 93 -84 -1 -136 -24
-207 -93 l-48 -46 0 66 c0 37 -3 69 -7 71 -5 3 -30 -2 -58 -10z"/>
<path d="M3976 4550 c-114 -29 -189 -104 -190 -191 -1 -44 3 -54 27 -75 37
-32 86 -32 121 1 31 28 32 44 9 104 l-17 44 28 23 c21 19 39 24 80 24 93 0
138 -56 140 -173 l1 -70 -103 -23 c-218 -49 -322 -137 -322 -269 1 -47 34
-109 75 -141 32 -24 49 -29 112 -33 88 -4 142 13 205 65 l41 35 21 -38 c25
-44 57 -63 107 -63 77 0 159 50 159 97 0 26 -3 27 -30 13 -25 -13 -66 -3 -76
18 -5 10 -11 127 -14 262 -5 264 -8 275 -65 332 -14 15 -47 34 -73 43 -58 20
-184 28 -236 15z m204 -498 c0 -100 -2 -110 -23 -130 -28 -26 -88 -52 -121
-52 -107 0 -145 145 -58 223 29 26 131 66 170 67 l32 0 0 -108z"/>
<path d="M5953 4539 c-121 -46 -178 -190 -122 -306 28 -58 62 -82 195 -138
136 -58 163 -78 171 -127 14 -93 -105 -150 -206 -98 -46 23 -73 54 -98 115
-16 40 -21 45 -50 45 l-33 0 0 -113 0 -112 78 -17 c128 -28 191 -32 260 -14
130 33 198 111 196 226 -1 115 -41 159 -212 233 -129 56 -167 89 -167 147 0
62 39 95 110 95 66 0 97 -26 140 -115 25 -52 32 -60 57 -60 l28 0 0 110 c0 80
-3 112 -12 114 -57 15 -192 36 -233 36 -27 -1 -74 -10 -102 -21z"/>
<path d="M7062 4539 c-68 -26 -118 -78 -138 -143 -14 -44 -15 -61 -4 -111 17
-83 64 -127 190 -179 132 -54 175 -80 190 -116 39 -94 -72 -169 -186 -125 -49
19 -94 70 -114 131 -10 28 -16 34 -41 34 l-29 0 0 -113 0 -114 75 -16 c119
-27 178 -31 236 -17 139 33 209 111 209 232 -1 107 -49 164 -190 224 -159 66
-190 92 -190 156 0 31 7 46 30 70 29 28 35 30 86 26 67 -6 101 -34 139 -119
23 -53 29 -59 56 -59 l30 0 -3 113 c-3 111 -3 112 -28 115 -14 2 -52 9 -86 17
-83 21 -168 18 -232 -6z"/>
<path d="M6635 4533 c-27 -8 -83 -24 -122 -35 -63 -18 -73 -24 -73 -43 0 -18
7 -24 35 -29 62 -12 65 -23 65 -286 0 -262 -2 -269 -65 -290 -27 -9 -35 -17
-35 -36 l0 -24 191 0 190 0 -3 26 c-2 20 -11 29 -38 38 -58 19 -60 28 -60 379
0 358 9 328 -85 300z"/>
<path d="M4930 4510 c0 -13 14 -26 39 -40 45 -23 45 -21 225 -431 l118 -266
-33 -67 c-18 -37 -48 -81 -67 -98 -36 -31 -56 -33 -134 -13 -21 6 -32 2 -52
-18 -28 -28 -33 -61 -14 -102 25 -55 108 -71 184 -36 76 35 116 110 319 602
80 195 154 366 163 381 10 15 31 38 47 50 17 13 31 31 33 41 3 15 -10 17 -143
17 -136 0 -145 -1 -145 -19 0 -12 14 -26 37 -38 44 -22 55 -51 39 -113 -19
-74 -139 -371 -147 -362 -4 4 -28 57 -52 117 -25 61 -61 150 -82 198 -44 107
-43 136 4 159 20 10 36 26 38 38 3 20 -2 20 -187 20 -183 0 -190 -1 -190 -20z"/>
<path d="M7045 3474 c-33 -8 -88 -24 -122 -35 -58 -19 -63 -23 -63 -49 0 -23
5 -30 30 -35 61 -13 60 -8 60 -476 0 -464 3 -442 -57 -458 -21 -5 -29 -14 -31
-34 l-3 -27 179 0 c98 0 181 2 184 5 15 15 -6 52 -35 61 -52 15 -57 38 -57
259 0 230 5 246 82 284 92 44 177 16 210 -69 14 -37 17 -80 17 -233 1 -117 -3
-196 -10 -209 -6 -11 -26 -26 -45 -34 -26 -11 -34 -20 -34 -39 l0 -25 180 0
180 0 0 30 c0 24 -4 30 -21 30 -69 0 -79 36 -79 294 0 116 -5 228 -11 249 -13
47 -60 102 -110 128 -86 43 -224 17 -311 -60 -20 -17 -39 -31 -42 -31 -4 0 -6
109 -5 243 1 200 -1 242 -12 244 -8 1 -41 -5 -74 -13z"/>
<path d="M1771 3363 c-18 -47 -200 -560 -243 -687 -22 -65 -48 -137 -58 -160
-20 -47 -71 -96 -101 -96 -14 0 -19 -7 -19 -30 l0 -30 170 0 170 0 0 30 c0 25
-4 30 -24 30 -40 0 -76 18 -85 42 -10 27 1 79 36 176 l26 72 172 0 173 0 36
-101 c20 -55 36 -111 36 -123 0 -36 -23 -57 -68 -63 -38 -5 -42 -8 -42 -34 l0
-29 210 0 210 0 0 28 c0 22 -7 30 -39 43 -22 9 -46 28 -55 42 -9 13 -80 195
-157 403 -77 209 -151 409 -165 447 l-26 67 -73 0 c-70 0 -73 -1 -84 -27z m79
-265 c18 -51 50 -140 72 -197 21 -57 38 -105 38 -107 0 -2 -65 -4 -145 -6 -80
-2 -145 0 -145 3 0 3 29 88 65 190 80 226 74 209 78 209 3 0 19 -42 37 -92z"/>
<path d="M4579 3107 c-45 -10 -110 -75 -143 -142 l-25 -50 0 98 c-1 86 -3 97
-18 97 -10 0 -70 -16 -133 -34 -103 -30 -115 -35 -118 -57 -2 -20 3 -26 30
-34 54 -16 58 -35 58 -285 0 -247 -2 -256 -60 -280 -21 -9 -30 -19 -30 -36 l0
-24 190 0 190 0 0 28 c0 25 -5 29 -42 38 -61 13 -70 46 -66 244 2 129 6 162
22 194 35 71 109 95 161 54 25 -20 30 -20 54 -7 37 21 52 56 48 112 -6 75 -44
102 -118 84z"/>
<path d="M5009 3110 c-47 -8 -128 -46 -165 -77 -157 -131 -180 -431 -46 -584
116 -132 375 -143 514 -20 91 80 133 192 126 340 -6 124 -30 183 -104 250 -83
76 -209 112 -325 91z m149 -107 c15 -10 42 -49 61 -86 29 -58 34 -79 39 -162
11 -207 -56 -326 -183 -327 -117 -2 -195 143 -182 337 9 129 49 211 122 254
28 16 112 7 143 -16z"/>
<path d="M5742 3110 c-66 -14 -159 -68 -183 -107 -12 -19 -24 -54 -27 -78 -4
-39 -1 -48 26 -75 34 -33 59 -37 101 -16 45 24 54 57 30 113 l-20 47 20 20
c14 14 38 21 78 24 49 3 62 0 87 -19 40 -31 56 -77 56 -156 l0 -68 -101 -22
c-214 -47 -308 -125 -309 -256 0 -53 16 -91 52 -123 39 -36 66 -45 138 -45 79
0 136 20 192 70 40 35 48 38 48 15 0 -9 15 -31 34 -50 31 -31 40 -34 90 -34
57 0 119 23 145 53 15 19 4 74 -12 58 -17 -17 -63 -13 -78 6 -11 12 -15 73
-19 252 -5 214 -8 240 -27 276 -11 22 -29 48 -40 57 -53 48 -191 77 -281 58z
m176 -481 c2 -86 0 -98 -19 -123 -27 -34 -76 -56 -124 -56 -51 0 -95 44 -95
95 0 81 52 136 156 169 78 24 79 24 82 -85z"/>
<path d="M6515 3109 c-70 -8 -116 -30 -174 -84 -97 -91 -137 -198 -129 -346 8
-139 64 -236 167 -293 138 -74 314 -46 403 65 38 47 60 109 46 127 -8 9 -21 2
-57 -31 -120 -112 -275 -90 -346 48 -53 105 -46 279 15 364 84 116 204 87 235
-57 13 -63 89 -69 125 -9 40 66 14 146 -61 185 -50 25 -151 40 -224 31z"/>
<path d="M8011 3105 c-71 -20 -141 -73 -183 -138 -49 -75 -58 -101 -68 -188
-17 -149 21 -272 109 -351 146 -131 390 -101 492 60 48 76 35 112 -22 61 -59
-53 -107 -73 -180 -74 -56 0 -73 4 -115 30 -58 36 -100 110 -110 193 l-7 52
232 0 231 0 0 62 c0 127 -61 234 -157 276 -67 28 -155 35 -222 17z m136 -85
c43 -26 66 -73 67 -140 l1 -55 -144 -3 -144 -3 7 42 c22 135 125 213 213 159z"/>
<path d="M8667 3110 c-113 -29 -177 -110 -177 -225 1 -99 68 -171 215 -229
117 -47 155 -79 155 -133 0 -49 -21 -78 -66 -93 -84 -28 -156 10 -208 110 -31
58 -41 70 -62 70 l-24 0 0 -114 0 -114 32 -11 c17 -6 71 -16 119 -23 203 -27
342 52 357 201 11 115 -39 177 -197 246 -56 24 -115 53 -130 65 -91 64 -29
192 84 175 52 -8 81 -36 116 -112 26 -57 31 -63 59 -63 l30 0 0 115 0 115 -33
0 c-17 0 -47 4 -65 9 -52 15 -163 21 -205 11z"/>
<path d="M2560 3084 c-47 -13 -102 -29 -122 -34 -53 -15 -52 -46 1 -67 22 -9
44 -26 50 -40 7 -16 11 -150 11 -417 0 -380 -1 -393 -20 -414 -11 -12 -32 -25
-45 -28 -14 -3 -25 -12 -25 -19 0 -7 -3 -20 -6 -29 -5 -14 16 -16 201 -16
l206 0 -3 27 c-3 23 -10 29 -48 38 -66 16 -80 49 -80 188 0 59 4 107 9 107 5
0 22 -7 37 -15 44 -23 171 -20 238 5 75 29 153 106 197 195 32 68 34 74 34
190 0 111 -2 124 -29 182 -54 118 -150 179 -268 171 -72 -5 -118 -24 -177 -74
l-41 -36 0 56 c0 66 3 65 -120 30z m355 -123 c89 -52 132 -236 89 -382 -21
-72 -45 -103 -97 -128 -75 -37 -161 -22 -206 35 -21 27 -22 34 -19 225 3 221
4 223 83 261 46 21 102 18 150 -11z"/>
<path d="M3385 3077 c-101 -30 -110 -35 -113 -59 -3 -22 1 -26 32 -32 20 -4
40 -15 46 -26 6 -12 10 -169 10 -422 0 -443 0 -440 -60 -453 -25 -5 -30 -11
-30 -36 l0 -29 195 0 195 0 0 30 c0 23 -5 30 -19 30 -42 0 -80 22 -90 52 -14
41 -15 248 -1 248 6 0 25 -7 42 -16 45 -24 198 -16 253 13 148 77 226 235 211
428 -13 178 -124 305 -267 305 -78 0 -141 -24 -199 -77 l-50 -45 0 61 c0 74 3
74 -155 28z m375 -105 c71 -35 120 -148 120 -278 0 -167 -70 -264 -189 -264
-66 0 -112 24 -136 69 -22 44 -22 378 1 422 30 60 134 85 204 51z"/>
</g>
</svg>
