<?xml version="1.0" standalone="no"?>
<!DOCTYPE svg PUBLIC "-//W3C//DTD SVG 20010904//EN"
 "http://www.w3.org/TR/2001/REC-SVG-20010904/DTD/svg10.dtd">
<svg version="1.0" xmlns="http://www.w3.org/2000/svg"
 width="1024.000000pt" height="1536.000000pt" viewBox="0 0 1024.000000 1536.000000"
 preserveAspectRatio="xMidYMid meet">

<g transform="translate(0.000000,1536.000000) scale(0.100000,-0.100000)"
fill="#000000" stroke="none">
<path d="M4990 11619 c-554 -52 -1043 -379 -1290 -863 -135 -266 -197 -575
-172 -852 23 -243 66 -390 189 -646 77 -159 85 -180 75 -203 -21 -45 -54 -52
-125 -25 -219 82 -354 104 -587 97 -254 -8 -388 -41 -605 -146 -350 -171 -636
-503 -764 -889 -62 -186 -75 -276 -75 -502 0 -220 12 -307 70 -493 41 -132
143 -329 233 -448 238 -316 573 -533 967 -625 111 -26 134 -28 339 -29 174 0
238 4 305 18 170 36 310 88 507 189 224 114 280 132 408 126 107 -4 161 -29
211 -95 48 -63 59 -131 45 -276 -44 -456 -256 -957 -559 -1317 -99 -119 -225
-238 -359 -342 -57 -44 -108 -88 -114 -99 -5 -11 -9 -38 -7 -61 2 -31 10 -46
31 -62 l28 -21 1372 0 c1122 0 1378 2 1404 13 51 22 67 95 30 143 -7 8 -57 51
-112 94 -285 226 -484 472 -650 805 -157 314 -262 706 -253 950 3 93 6 111 30
151 55 94 177 139 319 119 85 -12 124 -28 339 -138 188 -95 303 -138 470 -174
90 -19 135 -22 315 -22 179 0 225 4 309 22 644 143 1131 612 1266 1222 95 429
13 870 -231 1240 -81 123 -281 324 -400 403 -161 106 -335 181 -520 222 -46
11 -142 19 -254 22 -214 6 -362 -14 -529 -72 -55 -20 -111 -38 -124 -42 -30
-7 -62 22 -62 58 0 15 36 100 79 188 140 285 183 462 185 751 0 199 -11 290
-60 457 -146 507 -540 915 -1039 1078 -195 64 -440 93 -635 74z m-337 -1449
c105 -39 218 -152 253 -250 42 -120 35 -233 -21 -346 -42 -87 -107 -149 -203
-196 -63 -31 -72 -33 -177 -33 -108 0 -113 1 -186 37 -195 96 -286 290 -233
493 39 152 153 264 315 310 70 20 177 13 252 -15z m1184 -474 l28 -24 3 -621
c1 -342 6 -621 11 -621 4 0 16 9 26 20 31 34 164 121 238 155 97 44 183 65
302 72 119 7 218 -7 332 -46 309 -106 548 -411 624 -796 21 -107 19 -408 -4
-515 -81 -377 -299 -668 -599 -798 -241 -104 -497 -117 -730 -38 -105 36 -172
73 -277 153 l-68 51 -47 -63 c-65 -89 -82 -95 -270 -95 l-156 0 0 353 c0 1040
-13 2435 -22 2466 -6 19 -29 54 -52 79 -37 40 -41 50 -48 116 -4 39 -7 92 -7
118 l-1 47 108 4 c59 1 214 4 344 5 l237 2 28 -24z m-1123 -727 c14 -11 32
-30 39 -42 9 -17 13 -247 17 -1002 l5 -980 22 -41 c30 -56 72 -89 136 -108 77
-22 89 -40 90 -130 0 -98 -14 -122 -80 -128 -26 -3 -250 -6 -498 -7 -375 -2
-453 0 -469 12 -16 12 -20 30 -24 104 -3 55 0 98 7 111 6 12 33 27 67 38 71
22 117 66 133 127 8 33 11 273 11 830 0 881 2 857 -69 918 -22 19 -54 43 -73
54 l-33 20 -3 102 c-4 154 -32 143 369 143 315 0 327 -1 353 -21z"/>
<path d="M6101 8254 c-69 -18 -111 -44 -159 -99 -71 -80 -71 -85 -73 -675 l-1
-525 34 -28 c95 -80 254 -126 396 -113 264 24 408 207 452 576 21 177 5 396
-38 520 -86 246 -234 361 -465 359 -51 0 -116 -7 -146 -15z"/>
</g>
</svg>
